leg6dof9musc_added_mass_states
version=1
nRows=10
nColumns=33
inDegrees=yes

# SIMM Motion File Header:
name leg6dof9musc_added_mass_states
datacolumns 33
datarows 10
otherdata 1
range 0.94000000 0.95027300
endheader
time	pelvis_tilt	pelvis_tx	pelvis_ty	hip_flexion_r	knee_angle_r	knee_angle_pat_r	ankle_angle_r	pelvis_tilt_u	pelvis_tx_u	pelvis_ty_u	hip_flexion_r_u	knee_angle_r_u	knee_angle_pat_r_u	ankle_angle_r_u	bifemlh_r.activation	bifemlh_r.fiber_length	bifemsh_r.activation	bifemsh_r.fiber_length	glut_max2_r.activation	glut_max2_r.fiber_length	psoas_r.activation	psoas_r.fiber_length	rect_fem_r.activation	rect_fem_r.fiber_length	vas_int_r.activation	vas_int_r.fiber_length	med_gas_r.activation	med_gas_r.fiber_length	soleus_r.activation	soleus_r.fiber_length	tib_ant_r.activation	tib_ant_r.fiber_length
      0.94000000	      2.09316444	      0.03169152	      1.08486226	      7.07227040	    -17.94451876	    -17.94451452	     11.24873460	    -20.45569044	     -0.08646754	      0.08931138	    -69.02098088	     63.47976263	     63.47976263	      7.22721215	      0.07404728	      0.10335563	      0.02000000	      0.18978249	      0.08095954	      0.09603795	      0.02608166	      0.10299354	      0.03821236	      0.12524060	      0.09271655	      0.09303869	      0.03464804	      0.10697492	      0.13849574	      0.09752138	      0.02031078	      0.08141387
      0.94033039	      2.08638056	      0.03166292	      1.08489164	      7.04950641	    -17.92356918	    -17.92356494	     11.25105100	    -20.60833798	     -0.08665224	      0.08855155	    -68.77993237	     63.33595811	     63.33595811	      6.80418259	      0.07361616	      0.10335206	      0.02000000	      0.18979374	      0.08049260	      0.09601591	      0.02665134	      0.10301092	      0.03807627	      0.12524638	      0.09226877	      0.09302315	      0.03489033	      0.10697774	      0.13866121	      0.09752185	      0.02030822	      0.08141133
      0.94066079	      2.07954757	      0.03163426	      1.08492077	      7.02682065	    -17.90266746	    -17.90266323	     11.25323715	    -20.75361935	     -0.08683731	      0.08779829	    -68.54675870	     63.18982196	     63.18982196	      6.43951260	      0.07317512	      0.10334859	      0.02000000	      0.18980496	      0.07999500	      0.09599411	      0.02732385	      0.10302600	      0.03794403	      0.12525208	      0.09182844	      0.09300764	      0.03512799	      0.10698055	      0.13881311	      0.09752233	      0.02030569	      0.08140883
      0.94231275	      2.04467560	      0.03149004	      1.08506269	      6.91454271	    -17.79892558	    -17.79892134	     11.26294988	    -21.47171887	     -0.08776080	      0.08400677	    -67.37242463	     62.38416129	     62.38416129	      5.59653945	      0.07102376	      0.10333270	      0.02000000	      0.18986067	      0.07756773	      0.09588824	      0.03037240	      0.10308370	      0.03729897	      0.12527946	      0.08968052	      0.09293035	      0.03620535	      0.10699472	      0.13950169	      0.09752468	      0.02029332	      0.08139683
      0.94459823	      1.99428747	      0.03128803	      1.08524839	      6.76268807	    -17.65787874	    -17.65787451	     11.27698015	    -22.67929655	     -0.08901605	      0.07840964	    -65.43579259	     60.98805323	     60.98805323	      7.23362590	      0.06819014	      0.10331433	      0.02000000	      0.18993650	      0.07437068	      0.09574842	      0.03383992	      0.10314504	      0.03644933	      0.12531445	      0.08685142	      0.09282445	      0.03743077	      0.10701531	      0.14028490	      0.09752794	      0.02027703	      0.08138154
      0.94688371	      1.94071404	      0.03108318	      1.08542068	      6.61582985	    -17.52038369	    -17.52037945	     11.29832901	    -24.26811981	     -0.09023431	      0.07226427	    -62.99394777	     59.29381709	     59.29381709	     11.79610294	      0.06551389	      0.10329968	      0.02000000	      0.19001057	      0.07135119	      0.09561463	      0.03659899	      0.10320229	      0.03564689	      0.12534637	      0.08417943	      0.09272009	      0.03840583	      0.10703851	      0.14090810	      0.09753171	      0.02026165	      0.08136681
      0.94878651	      1.89304186	      0.03091054	      1.08555300	      6.49819514	    -17.40900326	    -17.40899902	     11.32506801	    -25.87924684	     -0.09122018	      0.06677147	    -60.60220220	     57.77014427	     57.77014427	     16.27258272	      0.06339948	      0.10329008	      0.02000000	      0.19007066	      0.06896561	      0.09550744	      0.03846083	      0.10325127	      0.03501290	      0.12537076	      0.08206840	      0.09263472	      0.03906380	      0.10706123	      0.14132863	      0.09753598	      0.02024949	      0.08135369
      0.95000000	      1.86095386	      0.03079947	      1.08563183	      6.42565057	    -17.33948949	    -17.33948525	     11.34640191	    -27.01839619	     -0.09183691	      0.06313581	    -58.94773744	     56.80175761	     56.80175761	     18.82448870	      0.06210263	      0.10328512	      0.02000000	      0.19010818	      0.06750243	      0.09544113	      0.03947598	      0.10328369	      0.03462405	      0.12538531	      0.08077362	      0.09258112	      0.03942255	      0.10707790	      0.14155792	      0.09753958	      0.02024204	      0.08134439
      0.95013650	      1.85725676	      0.03078693	      1.08564042	      6.41761738	    -17.33174345	    -17.33173922	     11.34898925	    -27.15274900	     -0.09190564	      0.06271987	    -58.75476737	     56.69417661	     56.69417661	     19.08452080	      0.06236916	      0.10328457	      0.02000000	      0.19011236	      0.06763633	      0.09543373	      0.03943851	      0.10328743	      0.03457537	      0.12538690	      0.08057721	      0.09257514	      0.03977942	      0.10707985	      0.14187039	      0.09754003	      0.02024121	      0.08134329
      0.95027300	      1.85354102	      0.03077438	      1.08564895	      6.40961088	    -17.32401212	    -17.32400788	     11.35161160	    -27.29151590	     -0.09197404	      0.06229890	    -58.55673382	     56.58633580	     56.58633580	     19.33719830	      0.06271325	      0.10328389	      0.02000000	      0.19011653	      0.06782691	      0.09542622	      0.03937229	      0.10329128	      0.03452572	      0.12538849	      0.08037084	      0.09256919	      0.04019475	      0.10708169	      0.14223583	      0.09754047	      0.02024039	      0.08134218
